<?xml version="1.0" encoding="UTF-8"?>
<svg width="188px" height="200px" viewBox="0 0 188 200" version="1.1" xmlns="http://www.w3.org/2000/svg" xmlns:xlink="http://www.w3.org/1999/xlink">
    <!-- Generator: Sketch 55.1 (78136) - https://sketchapp.com -->
    <title>angular</title>
    <desc>Created with Sketch.</desc>
    <g id="Page-1" stroke="none" stroke-width="1" fill="none" fill-rule="evenodd">
        <g id="angular" transform="translate(0.900000, 0.000000)" fill-rule="nonzero">
            <polygon id="Path" fill="#DD0031" points="93.1 0 93.1 0 93.1 0 0 33.2 14.2 156.3 93.1 200 93.1 200 93.1 200 172 156.3 186.2 33.2"></polygon>
            <polygon id="Path" fill="#C3002F" points="93.1 0 93.1 22.2 93.1 22.1 93.1 123.4 93.1 123.4 93.1 200 93.1 200 172 156.3 186.2 33.2"></polygon>
            <path d="M93.1,22.1 L34.9,152.6 L34.9,152.6 L56.6,152.6 L56.6,152.6 L68.3,123.4 L117.7,123.4 L129.4,152.6 L129.4,152.6 L151.1,152.6 L151.1,152.6 L93.1,22.1 L93.1,22.1 L93.1,22.1 L93.1,22.1 L93.1,22.1 Z M110.1,105.4 L76.1,105.4 L93.1,64.5 L110.1,105.4 Z" id="Shape" fill="#FFFFFF"></path>
        </g>
    </g>
</svg>