<?xml version="1.0" encoding="UTF-8"?>
<svg width="183px" height="214px" viewBox="0 0 183 214" version="1.1" xmlns="http://www.w3.org/2000/svg" xmlns:xlink="http://www.w3.org/1999/xlink">
    <!-- Generator: Sketch 55.1 (78136) - https://sketchapp.com -->
    <title>dragula</title>
    <desc>Created with Sketch.</desc>
    <g id="Page-1" stroke="none" stroke-width="1" fill="none" fill-rule="evenodd">
        <g id="dragula" transform="translate(0.000301, 0.000051)" fill-rule="nonzero">
            <path d="M45.0896994,158.662949 C42.4376994,199.335949 37.2416994,193.162949 37.2926994,202.532949 C37.3426994,211.902949 45.6526994,211.552949 45.6526994,211.552949 C45.6526994,211.552949 53.9676994,211.812949 53.9176994,202.442949 C53.8536994,190.609949 48.0016994,196.946949 45.0906994,158.662949 L45.0896994,158.662949 Z" id="Path" stroke="#52100F" stroke-width="4" fill="#961914" stroke-linejoin="round"></path>
            <path d="M161.297699,129.554949 C160.713699,129.372949 129.175699,119.444949 92.5676994,102.780949 L120.680699,92.7709486 C121.495699,92.4809486 122.030699,91.7009486 122.010699,90.8369486 C121.990699,89.9729486 121.414699,89.2199486 120.587699,88.9719486 C119.735699,88.7169486 35.1516994,62.7499486 13.5656994,11.0919486 C13.1996994,10.2149486 12.2656994,9.71794858 11.3356994,9.90194858 C10.4016994,10.0849486 9.72769942,10.8989486 9.72069942,11.8499486 C9.57069942,33.6919486 19.3246994,54.8999486 38.0576994,73.7259486 C25.0446994,65.4199486 13.0626994,56.4079486 3.40969942,46.8279486 C2.74969942,46.1729486 1.72969942,46.0579486 0.943699415,46.5499486 C0.156699415,47.0399486 -0.190300585,48.0059486 0.103699415,48.8849486 C15.9586994,96.0689486 75.7576994,116.614949 78.2956994,117.466949 C78.3786994,117.494949 78.4636994,117.516949 78.5496994,117.533949 L160.322699,133.428949 C160.450699,133.452949 160.578699,133.464949 160.705699,133.464949 C161.605699,133.464949 162.415699,132.854949 162.643699,131.952949 C162.901699,130.922949 162.311699,129.869949 161.297699,129.552949 L161.297699,129.554949 Z" id="Path" fill="#221C3B"></path>
            <path d="M20.2076994,33.8819486 C41.1136994,63.2939486 88.6896994,88.3659486 88.6896994,88.3659486 L83.0196994,99.9059486 C83.0196994,99.9059486 28.4636994,66.8429486 20.2066994,33.8829486 L20.2076994,33.8819486 Z" id="Path" fill="#952A58"></path>
            <path d="M176.816699,96.6999486 C169.672699,82.7769486 155.999699,73.5099486 136.172699,69.1529486 C81.1996994,57.0759486 66.5826994,46.8779486 38.4296994,0.954948585 C37.9566994,0.184948585 37.0296994,-0.173051415 36.1616994,0.0809485845 C35.2956994,0.334948585 34.7056994,1.13794858 34.7232987,2.04094858 C34.9156994,12.0359486 39.1406994,24.9739486 44.0336994,39.9539486 C55.6186994,75.4269486 70.0356994,119.575949 43.4076994,157.408949 C43.3776994,157.448949 43.3506994,157.491949 43.3246994,157.535949 C43.1676994,157.793949 43.0746994,158.078949 43.0446994,158.367949 L43.0446994,158.375949 C43.0366994,158.470949 43.0346994,158.565949 43.0376994,158.658949 L43.0376994,158.666949 C43.0556994,159.046949 43.1826994,159.423949 43.4156994,159.746949 C44.1256994,160.731949 45.2356994,162.111949 46.6376994,163.856949 C53.6176994,172.546949 69.9626994,192.896949 67.2126994,205.416949 C67.0006994,206.383949 67.5286994,207.360949 68.4546994,207.713949 C68.6876994,207.803949 68.9286994,207.843949 69.1646994,207.843949 C69.8716994,207.843949 70.5476994,207.469949 70.9106994,206.823949 C79.6306994,191.273949 98.1246994,188.135949 117.703699,184.813949 C143.348699,180.463949 172.413699,175.531949 180.351699,139.403949 C183.956699,122.997949 182.734699,108.230949 176.818699,96.7009486 L176.816699,96.6999486 Z M80.3596994,118.049949 C90.2116994,120.861949 112.163699,127.971949 112.483699,142.553949 C96.7736994,146.681949 84.2606994,150.020949 71.0656994,162.393949 C68.0456994,161.300949 59.8986994,158.487949 52.5976994,157.199949 C67.4696994,148.574949 76.5026994,132.226949 80.3576994,118.049949 L80.3596994,118.049949 Z" id="Shape" fill="#221C3B"></path>
            <path d="M47.6666994,26.3289486 C68.9166994,60.0799486 90.4726994,67.6199486 127.852699,75.8299486 C164.118699,83.7999486 176.802699,107.994949 170.709699,135.733949 C159.055699,188.777949 92.6626994,164.556949 70.3336994,191.748949 C60.5856994,167.172949 45.0356994,158.568949 45.0356994,158.568949 C45.0356994,158.568949 63.3956994,164.708949 69.6356994,171.774949 C72.3336994,174.829949 73.5506994,178.452949 73.5836994,178.994949 C75.0006994,179.994949 73.1536994,173.940949 73.9236994,173.026949 C95.2636994,147.659949 128.939699,158.671949 134.599699,132.906949 C141.799699,100.136949 100.269699,103.108949 74.9996994,90.2819486 C69.9196994,121.931949 64.2846994,139.276949 45.0356994,158.568949 C66.1956994,136.911949 67.5536994,97.9829486 59.4436994,58.8289486 C81.1766994,87.7449486 112.501699,92.8639486 129.417699,96.5789486 C92.4006994,85.4369486 62.9176994,66.8939486 47.6676994,26.3289486 L47.6666994,26.3289486 Z" id="Path" fill="#952A58"></path>
        </g>
    </g>
</svg>